<svg width="22" height="21" viewBox="0 0 22 21" fill="none" xmlns="http://www.w3.org/2000/svg">
<path d="M20 2H18C17.4477 2 17 1.55228 17 1C17 0.447715 16.5523 0 16 0C15.4477 0 15 0.447715 15 1V5C15 5.55228 15.4477 6 16 6C16.5523 6 17 5.55228 17 5C17 4.44772 17.4477 4 18 4H18.5C19.3284 4 20 4.67157 20 5.5V17C20 18.1046 19.1046 19 18 19H4C2.89543 19 2 18.1046 2 17V5C2 4.44772 2.44772 4 3 4C3.55228 4 4 3.55228 4 3C4 2.44772 3.55228 2 3 2H2C0.896 2 0 2.895 0 4V19C0 20.104 0.896 21 2 21H20C21.104 21 22 20.104 22 19V4C22 2.895 21.104 2 20 2Z" fill="#919191"/>
<path d="M7 5C7 4.44772 7.44772 4 8 4H13C13.5523 4 14 3.55228 14 3C14 2.44772 13.5523 2 13 2H8C7.44772 2 7 1.55228 7 1C7 0.447715 6.55228 0 6 0C5.44772 0 5 0.447715 5 1V5C5 5.55228 5.44772 6 6 6C6.55228 6 7 5.55228 7 5Z" fill="#919191"/>
<path d="M4 10C4 11.1046 4.89543 12 6 12C7.10457 12 8 11.1046 8 10C8 8.89543 7.10457 8 6 8C4.89543 8 4 8.89543 4 10Z" fill="#919191"/>
<path d="M9 10C9 11.1046 9.89543 12 11 12C12.1046 12 13 11.1046 13 10C13 8.89543 12.1046 8 11 8C9.89543 8 9 8.89543 9 10Z" fill="#919191"/>
<path d="M14 10C14 11.1046 14.8954 12 16 12C17.1046 12 18 11.1046 18 10C18 8.89543 17.1046 8 16 8C14.8954 8 14 8.89543 14 10Z" fill="#919191"/>
<path d="M4 15C4 16.1046 4.89543 17 6 17C7.10457 17 8 16.1046 8 15C8 13.8954 7.10457 13 6 13C4.89543 13 4 13.8954 4 15Z" fill="#919191"/>
<path d="M9 15C9 16.1046 9.89543 17 11 17C12.1046 17 13 16.1046 13 15C13 13.8954 12.1046 13 11 13C9.89543 13 9 13.8954 9 15Z" fill="#919191"/>
</svg>
