<svg width="22" height="22" viewBox="0 0 22 22" fill="none" xmlns="http://www.w3.org/2000/svg">
<path d="M20 2.5H18C17.4477 2.5 17 2.05228 17 1.5C17 0.947715 16.5523 0.5 16 0.5C15.4477 0.5 15 0.947715 15 1.5V5.5C15 6.05228 15.4477 6.5 16 6.5C16.5523 6.5 17 6.05228 17 5.5C17 4.94772 17.4477 4.5 18 4.5H18.5C19.3284 4.5 20 5.17157 20 6V17.5C20 18.6046 19.1046 19.5 18 19.5H4C2.89543 19.5 2 18.6046 2 17.5V5.5C2 4.94772 2.44772 4.5 3 4.5C3.55228 4.5 4 4.05228 4 3.5C4 2.94772 3.55228 2.5 3 2.5H2C0.896 2.5 0 3.395 0 4.5V19.5C0 20.604 0.896 21.5 2 21.5H20C21.104 21.5 22 20.604 22 19.5V4.5C22 3.395 21.104 2.5 20 2.5Z" fill="#919191"/>
<path d="M7 5.5C7 4.94772 7.44772 4.5 8 4.5H13C13.5523 4.5 14 4.05228 14 3.5C14 2.94772 13.5523 2.5 13 2.5H8C7.44772 2.5 7 2.05228 7 1.5C7 0.947715 6.55228 0.5 6 0.5C5.44772 0.5 5 0.947715 5 1.5V5.5C5 6.05228 5.44772 6.5 6 6.5C6.55228 6.5 7 6.05228 7 5.5Z" fill="#919191"/>
<path d="M4 10.5C4 11.6046 4.89543 12.5 6 12.5C7.10457 12.5 8 11.6046 8 10.5C8 9.39543 7.10457 8.5 6 8.5C4.89543 8.5 4 9.39543 4 10.5Z" fill="#919191"/>
<path d="M9 10.5C9 11.6046 9.89543 12.5 11 12.5C12.1046 12.5 13 11.6046 13 10.5C13 9.39543 12.1046 8.5 11 8.5C9.89543 8.5 9 9.39543 9 10.5Z" fill="#919191"/>
<path d="M14 10.5C14 11.6046 14.8954 12.5 16 12.5C17.1046 12.5 18 11.6046 18 10.5C18 9.39543 17.1046 8.5 16 8.5C14.8954 8.5 14 9.39543 14 10.5Z" fill="#919191"/>
<path d="M4 15.5C4 16.6046 4.89543 17.5 6 17.5C7.10457 17.5 8 16.6046 8 15.5C8 14.3954 7.10457 13.5 6 13.5C4.89543 13.5 4 14.3954 4 15.5Z" fill="#919191"/>
<path d="M9 15.5C9 16.6046 9.89543 17.5 11 17.5C12.1046 17.5 13 16.6046 13 15.5C13 14.3954 12.1046 13.5 11 13.5C9.89543 13.5 9 14.3954 9 15.5Z" fill="#919191"/>
</svg>
